<?xml version="1.0" standalone="no"?>
<!DOCTYPE svg PUBLIC "-//W3C//DTD SVG 20010904//EN"
 "http://www.w3.org/TR/2001/REC-SVG-20010904/DTD/svg10.dtd">
<svg version="1.0" xmlns="http://www.w3.org/2000/svg"
 width="700.000000pt" height="700.000000pt" viewBox="0 0 700.000000 700.000000"
 preserveAspectRatio="xMidYMid meet">
<metadata>
Created by potrace 1.11, written by Peter Selinger 2001-2013
</metadata>
<g transform="translate(0.000000,700.000000) scale(0.100000,-0.100000)"
fill="#000000" stroke="none">
<path d="M0 3500 l0 -3500 3500 0 3500 0 0 3500 0 3500 -3500 0 -3500 0 0
-3500z m3114 2138 c13 -18 38 -73 55 -121 17 -48 35 -97 41 -107 17 -31 54
-25 89 15 35 40 39 76 16 132 -30 72 -10 96 73 91 l47 -3 5 -45 c7 -64 33 -65
135 0 43 27 84 50 90 50 6 0 28 -9 50 -20 36 -18 40 -18 56 -4 28 26 61 10
126 -60 33 -35 69 -67 80 -70 22 -7 60 29 112 106 30 45 57 68 79 68 5 0 20
-20 33 -45 13 -25 27 -45 31 -45 3 0 17 13 31 29 l25 30 28 -30 c47 -49 130
-84 199 -84 76 0 118 24 154 87 l28 48 23 -25 c27 -28 61 -32 111 -11 74 30
76 30 83 -8 4 -19 25 -62 47 -95 47 -70 75 -81 166 -62 77 15 90 14 113 -9 29
-29 24 -41 -10 -24 -17 9 -49 14 -77 12 -47 -3 -47 -3 -87 -73 -33 -56 -41
-80 -41 -121 l0 -51 -68 55 c-79 64 -100 63 -105 -4 -7 -112 -18 -124 -74 -75
-73 63 -96 65 -132 10 l-27 -40 -490 7 -489 7 -41 -44 c-114 -123 -171 -308
-203 -659 -17 -181 -48 -320 -93 -420 -39 -84 -113 -181 -169 -222 -47 -34
-51 -44 -31 -72 12 -17 20 -15 115 33 56 28 103 51 106 51 2 0 6 -14 10 -30 3
-17 19 -51 36 -75 50 -73 86 -72 174 5 61 53 86 62 86 30 0 -24 34 -44 64 -36
13 3 35 24 50 46 16 25 34 40 46 40 23 0 100 -37 156 -75 36 -25 78 -32 100
-17 6 4 20 21 31 39 19 32 19 32 45 15 15 -10 45 -41 68 -69 22 -29 50 -55 61
-58 28 -9 67 28 75 72 3 18 12 33 20 33 28 0 65 -25 85 -57 33 -53 23 -125
-27 -205 -33 -54 -39 -71 -39 -118 0 -30 4 -62 8 -71 7 -14 -1 -20 -40 -32
-98 -32 -183 -49 -427 -87 l-251 -39 -23 24 c-27 29 -69 32 -114 9 -43 -22
-93 -22 -118 1 -21 19 -22 19 -69 -8 l-49 -27 -24 32 -24 31 -36 -32 c-20 -17
-51 -54 -69 -82 l-32 -51 2 -122 c2 -83 -5 -178 -20 -292 -30 -223 -32 -465
-5 -542 l18 -54 -24 -26 c-74 -80 -77 -122 -14 -180 27 -25 58 -43 81 -48 85
-16 199 24 229 81 23 42 85 75 206 109 52 15 113 39 135 54 27 18 54 27 81 27
42 1 49 5 168 90 44 32 56 36 105 34 48 -1 86 11 279 85 374 145 438 161 633
161 l127 0 55 -53 c45 -41 63 -52 89 -52 19 0 39 5 45 11 17 17 94 -50 125
-110 28 -53 28 -54 28 -252 0 -114 -4 -199 -9 -199 -5 0 -16 -3 -24 -6 -17 -6
-22 11 -33 115 -5 48 -12 70 -30 88 -49 48 -100 18 -111 -67 -5 -38 -7 -40
-42 -40 -20 0 -58 7 -85 15 -76 23 -91 20 -163 -40 -101 -83 -156 -83 -212 1
-20 29 -35 40 -58 42 -43 4 -61 -26 -85 -136 -22 -99 -38 -122 -83 -122 -52 0
-73 26 -80 95 -6 61 -24 89 -51 78 -10 -3 -14 -22 -14 -58 0 -66 -39 -145 -92
-188 -33 -27 -40 -29 -65 -18 -27 11 -28 14 -28 79 0 61 -2 67 -20 64 -38 -6
-62 -46 -73 -122 -6 -40 -12 -74 -14 -76 -2 -1 -25 4 -50 14 -40 14 -55 15
-105 4 -123 -26 -126 -27 -176 -99 -90 -132 -221 -238 -327 -263 -46 -11 -53
-10 -106 16 -50 25 -72 28 -201 35 -136 7 -149 9 -208 39 -48 25 -71 31 -92
26 -33 -9 -83 -53 -83 -75 0 -8 -16 4 -36 27 -24 29 -65 56 -130 89 -91 45
-94 46 -114 28 -11 -10 -20 -26 -20 -35 0 -9 -5 -31 -11 -49 -16 -45 -46 -41
-91 12 -22 27 -64 58 -108 81 -67 36 -72 37 -95 22 -22 -14 -25 -14 -40 1 -12
12 -15 25 -10 47 3 17 9 50 12 73 6 49 10 51 46 23 14 -11 30 -20 36 -20 18 0
32 39 38 109 5 64 4 70 -17 81 -12 7 -35 41 -52 78 -41 91 -52 102 -105 102
-30 0 -43 4 -43 14 0 7 -11 30 -25 50 -28 42 -27 43 25 16 82 -42 106 -18 97
99 -3 42 -17 117 -32 166 -17 58 -27 117 -28 166 -2 69 1 80 30 127 18 29 29
52 24 52 -17 0 -80 74 -86 101 -8 37 19 97 78 172 82 105 85 150 15 196 l-37
24 32 21 c18 12 40 38 50 59 17 34 18 45 7 123 -7 46 -9 100 -6 119 7 37 52
81 93 91 27 7 27 10 8 99 -6 27 -4 31 16 32 28 2 36 15 50 83 16 75 0 141 -50
206 l-39 52 43 42 42 41 7 -32 c3 -17 6 -49 6 -71 0 -51 23 -94 61 -113 24
-13 33 -14 45 -4 31 26 45 73 54 177 5 59 11 114 15 123 3 9 -3 23 -15 34 -18
16 -27 17 -76 8 l-55 -10 6 26 c6 25 50 93 135 211 68 94 81 167 44 241 -7 14
-9 30 -5 37 4 8 27 -9 66 -48 33 -33 63 -60 68 -60 4 0 20 26 34 58 30 65 33
117 19 357 -8 134 -10 141 -36 170 -31 33 -70 106 -70 130 0 19 -3 19 -42 -5
-36 -22 -98 -26 -145 -10 -22 8 -36 24 -53 60 -19 41 -26 48 -41 40 -24 -14
-39 -12 -39 3 0 6 -23 58 -51 113 -59 117 -60 153 -8 179 l29 16 0 -31 c0 -17
7 -44 15 -60 29 -56 79 -65 138 -25 29 20 37 32 37 56 0 25 3 30 16 25 9 -3
69 -16 132 -27 64 -11 129 -27 143 -35 41 -21 70 -69 78 -129 7 -51 16 -74 25
-64 2 2 27 48 55 101 59 109 92 143 151 153 l40 7 0 49 c0 27 4 49 9 49 6 0
21 -15 35 -32z m2040 -34 c11 -28 7 -34 -24 -34 -25 0 -30 4 -30 25 0 20 5 25
24 25 13 0 27 -7 30 -16z m-456 -2006 c45 -49 55 -133 20 -173 -21 -23 -26
-24 -58 -15 -63 18 -67 16 -74 -51 -4 -33 -10 -67 -13 -75 -10 -26 -41 -14
-72 27 -25 34 -28 44 -18 60 9 15 7 24 -11 49 -28 37 -22 50 24 50 42 0 93 20
117 47 16 18 16 24 2 69 -22 73 -21 77 23 55 20 -10 47 -30 60 -43z m-2488
-20 c0 -19 -2 -20 -10 -8 -13 19 -13 30 0 30 6 0 10 -10 10 -22z m2830 -15 c0
-10 -32 -43 -42 -43 -12 0 -10 24 4 38 13 13 38 16 38 5z m-1154 -2249 c-5
-17 -13 -24 -31 -24 l-25 0 28 45 c23 38 28 42 30 24 2 -11 1 -32 -2 -45z"/>
<path d="M2640 5344 c0 -68 2 -75 16 -64 32 27 34 46 13 94 -11 25 -22 46 -24
46 -3 0 -5 -34 -5 -76z"/>
<path d="M3030 5323 c0 -5 4 -14 9 -22 7 -11 11 -9 20 8 10 18 9 21 -9 21 -11
0 -20 -3 -20 -7z"/>
<path d="M2765 5106 c-18 -13 -17 -16 24 -72 58 -78 69 -86 109 -79 29 5 32 4
32 -19 0 -15 7 -27 18 -30 10 -3 23 -19 29 -36 14 -38 35 -46 67 -25 35 23 33
46 -11 99 -21 25 -51 63 -66 86 -19 28 -45 49 -80 66 -59 27 -95 30 -122 10z"/>
<path d="M3232 5108 c-22 -22 -14 -38 19 -38 26 0 30 3 27 22 -3 26 -28 34
-46 16z"/>
<path d="M2890 4725 c0 -2 9 -9 20 -15 16 -9 20 -8 20 5 0 8 -9 15 -20 15 -11
0 -20 -2 -20 -5z"/>
<path d="M2750 4535 c0 -73 1 -75 25 -75 24 0 25 3 25 53 0 51 -19 97 -41 97
-5 0 -9 -34 -9 -75z"/>
<path d="M2687 4172 c-23 -25 -21 -34 6 -30 14 2 23 11 25 26 4 27 -9 28 -31
4z"/>
<path d="M2601 3239 c-6 -18 -11 -38 -11 -45 0 -14 61 -55 72 -48 17 11 8 84
-12 104 -27 27 -36 25 -49 -11z"/>
<path d="M2266 3158 c-15 -76 0 -142 36 -154 32 -10 48 14 48 70 0 54 -17 84
-56 105 -19 9 -22 7 -28 -21z"/>
<path d="M2930 2978 c0 -21 4 -38 9 -38 19 0 21 18 6 46 l-15 29 0 -37z"/>
<path d="M2712 2988 c-17 -17 -15 -28 6 -28 24 0 32 8 25 26 -6 17 -15 18 -31
2z"/>
<path d="M2327 2829 c-17 -10 -39 -46 -51 -86 -6 -18 -3 -23 11 -23 12 0 31
20 51 53 18 29 32 56 32 60 0 10 -22 8 -43 -4z"/>
<path d="M2488 2472 c-39 -23 -36 -82 3 -82 24 0 31 17 27 63 l-3 36 -27 -17z"/>
<path d="M2400 1840 c0 -24 22 -26 44 -4 22 21 20 24 -14 24 -23 0 -30 -4 -30
-20z"/>
<path d="M3356 1775 c-8 -23 10 -62 34 -70 11 -4 34 -4 50 0 25 5 30 12 30 35
0 25 -5 31 -37 39 -52 15 -70 14 -77 -4z"/>
<path d="M3465 1538 c14 -69 75 -91 75 -29 0 24 -7 34 -30 46 -44 23 -53 20
-45 -17z"/>
</g>
</svg>
